HIERARCHY
ROOT Hips
{
    OFFSET 0.000000 0.000000 0.000000
    CHANNELS 6 Xposition Yposition Zposition Zrotation Xrotation Yrotation
    JOINT Spine
    {
        OFFSET -0.000000 0.083210 0.000000
        CHANNELS 3 Zrotation Xrotation Yrotation
        JOINT Spine1
        {
            OFFSET -0.000000 0.256334 0.000000
            CHANNELS 3 Zrotation Xrotation Yrotation
            JOINT Neck
            {
                OFFSET -0.000000 0.275576 0.002912
                CHANNELS 3 Zrotation Xrotation Yrotation
                JOINT Head
                {
                    OFFSET -0.000000 0.157287 0.020295
                    CHANNELS 3 Zrotation Xrotation Yrotation
                    End Site
                    {
                        OFFSET -0.000000 0.202951 0.000000
                    }
                }
            }
            JOINT LeftShoulder
            {
                OFFSET 0.041044 0.235234 -0.000041
                CHANNELS 3 Zrotation Xrotation Yrotation
                JOINT LeftArm
                {
                    OFFSET 0.117964 0.000000 0.000000
                    CHANNELS 3 Zrotation Xrotation Yrotation
                    JOINT LeftForeArm
                    {
                        OFFSET 0.291248 0.000000 0.000000
                        CHANNELS 3 Zrotation Xrotation Yrotation
                        JOINT LeftHand
                        {
                            OFFSET 0.245673 0.000000 0.000000
                            CHANNELS 3 Zrotation Xrotation Yrotation
                            End Site
                            {
                                OFFSET 0.152213 0.000000 0.000000
                            }
                        }
                    }
                }
            }
            JOINT RightShoulder
            {
                OFFSET -0.040052 0.235234 -0.000041
                CHANNELS 3 Zrotation Xrotation Yrotation
                JOINT RightArm
                {
                    OFFSET -0.117964 0.000000 0.000000
                    CHANNELS 3 Zrotation Xrotation Yrotation
                    JOINT RightForeArm
                    {
                        OFFSET -0.291248 0.000000 0.000000
                        CHANNELS 3 Zrotation Xrotation Yrotation
                        JOINT RightHand
                        {
                            OFFSET -0.245673 0.000000 0.000000
                            CHANNELS 3 Zrotation Xrotation Yrotation
                            End Site
                            {
                                OFFSET -0.152213 0.000000 0.000000
                            }
                        }
                    }
                }
            }
        }
    }
    JOINT LeftUpLeg
    {
        OFFSET 0.101475 0.000000 0.000000
        CHANNELS 3 Zrotation Xrotation Yrotation
        JOINT LeftLeg
        {
            OFFSET -0.000000 -0.446535 0.000000
            CHANNELS 3 Zrotation Xrotation Yrotation
            JOINT LeftFoot
            {
                OFFSET -0.000000 -0.400037 0.000000
                CHANNELS 3 Zrotation Xrotation Yrotation
                JOINT LeftToeBase
                {
                    OFFSET -0.000000 -0.065959 0.152213
                    CHANNELS 3 Zrotation Xrotation Yrotation
                    End Site
                    {
                        OFFSET -0.000000 0.000000 0.040590
                    }
                }
            }
        }
    }
    JOINT RightUpLeg
    {
        OFFSET -0.101475 0.000000 0.000000
        CHANNELS 3 Zrotation Xrotation Yrotation
        JOINT RightLeg
        {
            OFFSET -0.000000 -0.446535 0.000000
            CHANNELS 3 Zrotation Xrotation Yrotation
            JOINT RightFoot
            {
                OFFSET -0.000000 -0.400037 0.000000
                CHANNELS 3 Zrotation Xrotation Yrotation
                JOINT RightToeBase
                {
                    OFFSET -0.000000 -0.065959 0.152213
                    CHANNELS 3 Zrotation Xrotation Yrotation
                    End Site
                    {
                        OFFSET -0.000000 0.000000 0.040590
                    }
                }
            }
        }
    }
}
MOTION
Frames:    8
Frame Time:    0.008333
0.255546    1.049335    -0.067992    0.028853    1.473359    -0.254063    -1.998298    -0.490342    -1.500317    -2.155003    1.083105    -0.476747    6.307948    -9.726204    -2.023474    1.491437    7.916082    -2.093396    6.178528    5.568415    -4.509779    -34.246807    5.409177    0.240154    12.806118    -20.520485    -11.750040    13.285310    -18.378531    8.130956    -5.076102    5.951050    6.207718    36.139233    0.752058    -2.384896    -18.301384    -43.755428    -2.105790    -4.223281    -43.834049    -6.239532    6.977007    -5.385013    -0.328456    -2.009063    22.670101    4.940786    -12.516036    3.767876    -7.703899    -0.040765    -6.079579    1.238720    -7.309835    -6.387858    5.760327    1.401024    24.912264    7.116495    16.771505    -2.536236    -8.735250    -0.007358    -0.879170    -0.221088    
0.254838    1.047371    -0.068363    -0.206124    1.498841    -0.600220    -1.765260    -0.347745    -1.545028    -2.174019    1.104368    -0.492219    6.563269    -9.830606    -1.825496    1.393682    7.913371    -1.864121    5.445928    5.775881    -4.353413    -35.995094    3.815226    0.023334    10.858947    -20.693130    -10.558120    12.304147    -18.927774    8.059656    -4.114200    6.356096    6.546329    38.012726    1.887601    -1.537559    -17.368902    -43.682938    -2.725736    -4.006001    -43.812126    -6.784340    6.350223    -5.539397    -0.178283    -2.096194    22.747332    5.086407    -12.697721    3.406069    -7.787714    -0.043336    -6.018278    1.295689    -6.282785    -6.779369    5.535264    1.324840    25.165592    7.610767    17.424480    -2.873361    -7.770226    -0.004774    -1.832961    -0.114776    
0.254057    1.044810    -0.068886    -0.468533    1.594911    -0.973903    -1.537019    -0.302137    -1.505230    -2.126949    1.156951    -0.478910    6.743570    -9.850180    -1.672238    1.337637    7.839743    -1.687027    4.735987    5.703932    -4.402272    -37.828613    2.680054    -0.007641    9.195624    -20.873682    -9.117757    11.139736    -19.445543    8.053524    -3.138372    6.838144    6.782784    39.788761    3.463930    -0.550825    -16.635504    -43.612961    -3.487516    -3.578174    -43.816376    -7.309170    5.791451    -5.764343    0.047057    -2.155825    22.802750    5.384788    -12.824249    3.316540    -7.893602    -0.039079    -6.108364    1.196647    -5.230766    -7.253986    5.386765    1.257994    25.411068    7.973262    17.891537    -2.995559    -6.890174    0.006557    -2.575187    0.136428    
0.253273    1.041513    -0.069415    -0.705276    1.781756    -1.283538    -1.380972    -0.381035    -1.524383    -1.963754    1.253106    -0.485115    6.812854    -9.841203    -1.502492    1.315346    7.744628    -1.502669    3.912841    5.703779    -4.339741    -39.478043    1.292415    -0.214871    7.495593    -20.713602    -7.614191    9.789752    -19.585970    8.180159    -2.223327    7.353856    7.032387    41.517399    5.466806    0.542716    -16.147970    -43.770229    -4.322996    -3.216829    -44.053349    -7.843021    5.228818    -6.116534    0.241339    -2.185024    22.844070    5.616356    -12.779066    3.440496    -7.854562    -0.040856    -6.206921    1.285068    -4.223212    -7.791122    5.227864    1.197579    25.619312    8.325953    18.162048    -2.733479    -6.376814    0.030140    -3.384456    0.546827    
0.252313    1.037479    -0.070054    -0.956170    2.006749    -1.646670    -1.301348    -0.523133    -1.527624    -1.646277    1.372951    -0.487430    6.767527    -9.749075    -1.308313    1.381637    7.591630    -1.309618    3.086153    5.689191    -4.278603    -41.223217    0.036485    -0.360530    5.862113    -20.528057    -6.269948    9.379725    -19.577755    8.399953    -1.336749    8.103683    7.383528    43.090076    7.588474    1.770321    -15.839010    -43.818794    -5.160013    -2.274314    -44.218369    -8.183312    4.723204    -6.549376    0.693122    -2.095030    22.969948    5.667758    -12.680537    3.781631    -7.655647    -0.040280    -6.113239    1.235053    -3.178694    -8.388758    5.119659    1.103999    25.824017    8.456820    18.260035    -2.004245    -6.077380    0.034399    -3.943732    0.573395    
0.251438    1.032689    -0.070805    -1.166882    2.233937    -1.910930    -1.286656    -0.615341    -1.602075    -1.266869    1.412946    -0.516065    6.676021    -9.583254    -1.128212    1.430726    7.385189    -1.124606    2.290602    5.725100    -4.228562    -43.067150    -0.864275    -0.568304    4.514823    -20.407848    -4.788287    8.567912    -19.642214    8.343281    -0.545664    8.798424    7.756259    44.682327    10.015749    2.923426    -15.573761    -44.173428    -5.711681    -2.597404    -44.582573    -9.213841    4.201089    -7.012303    0.931960    -2.038159    23.070587    5.932838    -12.540933    4.368961    -7.423870    -0.043950    -5.846715    1.257512    -2.204497    -8.994917    4.944911    1.004208    26.093960    8.627837    18.314501    -1.124883    -6.356550    0.031020    -4.122049    0.504014    
0.250496    1.027196    -0.071514    -1.326891    2.450551    -2.330388    -1.355861    -0.671703    -1.558752    -0.895483    1.388361    -0.506109    6.721337    -9.364841    -0.926928    1.370300    7.146240    -0.886836    1.683336    5.903514    -4.137725    -45.157284    -1.598547    -0.879526    3.399362    -20.329285    -3.449947    8.192761    -19.651693    8.622035    0.245419    9.455151    8.148256    46.243408    12.644617    4.094276    -15.647120    -44.814095    -6.413294    -2.915752    -45.253361    -10.212196    3.700524    -7.426208    1.301440    -1.932438    23.134066    5.975762    -12.595010    5.124771    -6.986796    -0.047871    -5.691421    1.318392    -1.254636    -9.637308    4.991253    0.917256    26.464409    8.613340    18.303608    -0.193719    -6.989145    0.030586    -3.957538    0.508818    
0.249599    1.020902    -0.072132    -1.453833    2.599306    -2.627668    -1.480741    -0.640535    -1.588576    -0.513547    1.343029    -0.520781    6.761503    -9.157386    -0.750810    1.356389    6.940469    -0.685044    1.230288    6.146385    -4.088805    -47.536869    -1.962658    -1.210763    2.640908    -20.469704    -2.358516    8.432436    -19.781017    9.192467    0.980616    10.129290    8.545247    47.802334    15.357755    5.263628    -15.989455    -45.173626    -7.163534    -2.085907    -45.745766    -10.508578    3.160001    -7.784928    1.445367    -1.812285    23.196543    6.065398    -12.427571    5.834344    -6.438701    -0.021560    -6.117889    0.661835    -0.387733    -10.181016    5.099057    0.928611    26.874666    8.525628    18.174931    0.625407    -8.064038    0.024910    -3.574214    0.438776    
